HIERARCHY
ROOT SpineBase
{
  OFFSET 0.000000 0.000000 0.000000
  CHANNELS 6 Xposition Yposition Zposition Zrotation Xrotation Yrotation
  JOINT SpineMid
  {
    OFFSET 0.000000 18.830555 0.000000
    CHANNELS 3 Zrotation Xrotation Yrotation
    JOINT SpineShoulder
    {
      OFFSET -0.029894 13.281792 -0.701800
      CHANNELS 3 Zrotation Xrotation Yrotation
      JOINT Neck
      {
        OFFSET -0.031437 4.171865 -0.476055
        CHANNELS 3 Zrotation Xrotation Yrotation
        JOINT Head
        {
          OFFSET -0.782849 8.093808 -5.538035
          CHANNELS 3 Zrotation Xrotation Yrotation
          End Site
          {
            OFFSET 0 0 0
          }
        }
      }
      JOINT ShoulderLeft
      {
        OFFSET -8.876815 9.489291 2.972714
        CHANNELS 3 Zrotation Xrotation Yrotation
        JOINT ElbowLeft
        {
          OFFSET -6.713816 -24.912358 -8.435975
          CHANNELS 3 Zrotation Xrotation Yrotation
          JOINT WristLeft
          {
            OFFSET 1.648507 -25.899745 -5.774833
            CHANNELS 3 Zrotation Xrotation Yrotation
            JOINT HandLeft
            {
              OFFSET 1.424239 -8.799518 -2.826534
              CHANNELS 3 Zrotation Xrotation Yrotation
              JOINT HandTipLeft
              {
                OFFSET 0.575176 -4.638300 2.159211
                CHANNELS 3 Zrotation Xrotation Yrotation
                End Site
                {
                  OFFSET 0 0 0
                }
              }
              JOINT ThumbLeft
              {
                OFFSET 2.329630 -0.322402 -1.708067
                CHANNELS 3 Zrotation Xrotation Yrotation
                End Site
                {
                  OFFSET 0 0 0
                }
              }
            }
          }
        }
      }
      JOINT ShoulderRight
      {
        OFFSET 8.209315 -3.141602 -6.261487
        CHANNELS 3 Zrotation Xrotation Yrotation
        JOINT ElbowRight
        {
          OFFSET -0.045765 -7.205875 -24.177648
          CHANNELS 3 Zrotation Xrotation Yrotation
          JOINT WristRight
          {
            OFFSET -10.562416 15.291011 1.131238
            CHANNELS 3 Zrotation Xrotation Yrotation
            JOINT HandRight
            {
              OFFSET -0.850960 3.592961 2.773455
              CHANNELS 3 Zrotation Xrotation Yrotation
              JOINT HandTipRight
              {
                OFFSET -0.836446 1.616232 1.941963
                CHANNELS 3 Zrotation Xrotation Yrotation
                End Site
                {
                  OFFSET 0 0 0
                }
              }
              JOINT ThumbRight
              {
                OFFSET -0.705177 -0.453639 -2.605713
                CHANNELS 3 Zrotation Xrotation Yrotation
                End Site
                {
                  OFFSET 0 0 0
                }
              }
            }
          }
        }
      }
    }
  }
  JOINT HipLeft
  {
    OFFSET -8.767118 -0.896686 6.072874
    CHANNELS 3 Zrotation Xrotation Yrotation
    JOINT KneeLeft
    {
      OFFSET -21.609332 3.536045 -27.964094
      CHANNELS 3 Zrotation Xrotation Yrotation
      JOINT AnkleLeft
      {
        OFFSET 18.911211 -18.490949 41.909898
        CHANNELS 3 Zrotation Xrotation Yrotation
        JOINT FootLeft
        {
          OFFSET -7.304954 6.384061 7.478103
          CHANNELS 3 Zrotation Xrotation Yrotation
          End Site
          {
            OFFSET 0 0 0
          }
        }
      }
    }
  }
  JOINT HipRight
  {
    OFFSET 6.978385 -3.207869 -12.379626
    CHANNELS 3 Zrotation Xrotation Yrotation
    JOINT KneeRight
    {
      OFFSET -11.497006 -11.113531 -32.463661
      CHANNELS 3 Zrotation Xrotation Yrotation
      JOINT AnkleRight
      {
        OFFSET 2.885374 -20.272230 24.282932
        CHANNELS 3 Zrotation Xrotation Yrotation
        JOINT FootRight
        {
          OFFSET 5.322377 -3.611076 -0.696720
          CHANNELS 3 Zrotation Xrotation Yrotation
          End Site
          {
            OFFSET 0 0 0
          }
        }
      }
    }
  }
}
MOTION
Frames: 16
Frame Time: 0.033333
73.756131 38.204705 282.622536 -0.000000 0.000000 49.525900 -0.000000 0.000000 -49.525900 -0.000000 0.000000 0.000000 -0.000000 0.000000 0.000000 0.000000 0.000000 0.000000 -0.000000 0.000000 0.000000 -0.000000 0.000000 0.000000 -0.000000 0.000000 0.000000 -0.000000 0.000000 0.000000 0.000000 0.000000 0.000000 0.000000 0.000000 0.000000 -0.000000 0.000000 0.000000 -0.000000 0.000000 0.000000 -0.000000 0.000000 0.000000 -0.000000 0.000000 0.000000 0.000000 0.000000 0.000000 0.000000 0.000000 0.000000 -0.000000 0.000000 -49.525900 -0.000000 0.000000 0.000000 -0.000000 0.000000 0.000000 0.000000 0.000000 0.000000 -0.000000 0.000000 -49.525900 -0.000000 0.000000 0.000000 -0.000000 0.000000 0.000000 0.000000 0.000000 0.000000
73.532779 38.421438 282.786575 -0.523069 -0.525154 48.047715 0.740230 -0.037950 -48.049867 -0.000000 0.000000 0.000000 0.663461 1.287974 0.575186 0.000000 0.000000 0.000000 -0.000000 0.000000 0.000000 0.957283 0.186100 -0.202977 -3.498432 0.538827 1.144111 -0.682124 1.052328 -2.212840 0.000000 0.000000 0.000000 0.000000 0.000000 0.000000 0.025286 -1.465206 -0.078584 -1.867709 1.709294 0.440665 5.671434 -3.168542 -3.888367 -5.944983 -5.043858 2.656450 0.000000 0.000000 0.000000 0.000000 0.000000 0.000000 0.900896 -0.034319 -46.472313 -0.230697 2.358915 0.634174 -1.299914 3.950852 6.587721 0.000000 0.000000 0.000000 1.195875 -0.694822 -50.281469 -0.898295 -4.395393 1.308695 -1.812863 7.247050 5.748987 0.000000 0.000000 0.000000
73.347769 38.613820 282.931719 -0.958678 -0.989687 46.331136 1.377806 -0.010181 -46.339294 -0.000000 0.000000 0.000000 1.199531 2.318751 1.034059 0.000000 0.000000 0.000000 1.143080 -0.487746 -0.251817 0.535281 0.793669 -0.112356 -6.428471 0.961745 2.117552 -1.212894 2.164686 -4.070291 0.000000 0.000000 0.000000 0.000000 0.000000 0.000000 0.013303 -2.346260 -0.031631 -3.190966 2.860444 0.781800 9.945776 -6.469261 -6.998029 -10.054594 -7.936169 5.345051 0.000000 0.000000 0.000000 0.000000 0.000000 0.000000 1.677604 -0.004500 -43.373075 -0.383018 4.283756 1.084706 -20.079916 25.896949 51.342276 0.000000 0.000000 0.000000 2.235710 -1.239433 -50.500026 -1.403845 -7.499273 2.656317 -2.816505 11.593259 8.781058 0.000000 0.000000 0.000000
73.201100 38.781848 283.057967 -1.302482 -1.389882 44.385048 1.902941 0.081955 -44.402208 -0.000000 0.000000 0.000000 1.610898 3.082171 1.380615 0.000000 0.000000 0.000000 1.523813 -0.614396 -0.344140 0.643600 0.972573 -0.130679 -8.742932 1.282597 2.902711 -1.477976 3.185699 -5.499313 0.000000 0.000000 0.000000 0.000000 0.000000 0.000000 -0.032513 -2.680992 0.136041 -3.962023 3.504656 0.962369 12.898610 -9.765982 -9.417482 -12.879276 -9.167308 7.952849 0.000000 0.000000 0.000000 0.000000 0.000000 0.000000 2.320903 0.086272 -40.241719 -0.460156 5.692887 1.282499 -63.413380 18.829953 126.879177 0.000000 0.000000 0.000000 3.116534 -1.627651 -50.185847 -1.648850 -9.471623 4.002362 -3.283330 14.065416 10.134701 0.000000 0.000000 0.000000
73.092773 38.925525 283.165318 -1.550790 -1.722526 42.252160 2.306003 0.231728 -42.280139 -0.000000 0.000000 0.000000 1.899795 3.571337 1.618141 0.000000 0.000000 0.000000 1.777573 -0.662095 -0.415825 0.646602 1.006466 -0.118420 -10.408359 1.515642 3.486603 -1.385249 3.971460 -6.452853 0.000000 0.000000 0.000000 0.000000 0.000000 0.000000 -0.113383 -2.488147 0.424716 -4.176600 3.667417 0.948139 14.620122 -12.987397 -11.252881 -14.808876 -9.027819 10.398217 0.000000 0.000000 0.000000 0.000000 0.000000 0.000000 2.822222 0.228883 -37.123370 -0.468882 6.532915 1.181261 -68.719146 12.130660 139.226824 0.000000 0.000000 0.000000 3.831479 -1.863227 -49.380026 -1.734705 -10.432836 5.306385 -3.271193 15.029309 10.100395 0.000000 0.000000 0.000000
73.022787 39.044849 283.253773 -1.700617 -1.984932 40.019964 1.905951 0.891695 -40.094499 0.814738 0.076850 0.042678 2.067760 3.781947 1.748957 0.000000 0.000000 0.000000 1.904521 -0.630476 -0.467550 0.544826 0.895318 -0.074315 -11.403107 1.673523 3.859910 -0.867553 4.408096 -6.903992 0.000000 0.000000 0.000000 0.000000 0.000000 0.000000 -0.235001 -1.768365 0.839545 -3.834012 3.346977 0.728580 15.188871 -16.107688 -12.605618 -16.109551 -7.635635 12.654236 0.000000 0.000000 0.000000 0.000000 0.000000 0.000000 3.174769 0.406721 -34.105991 -0.422075 6.776575 0.757794 -70.145439 9.899356 143.025487 0.000000 0.000000 0.000000 4.369464 -1.961770 -48.169762 -1.736020 -10.454467 6.539131 -2.700389 14.503679 8.555367 0.000000 0.000000 0.000000
72.992229 39.140424 283.344666 -1.715859 -2.215503 38.581610 1.896157 1.087012 -38.666481 0.911797 0.183874 0.047134 2.190241 3.066670 1.765803 0.000000 0.000000 0.000000 1.842636 -0.238051 -0.558847 -0.291202 0.409052 0.222322 -12.563095 2.000618 4.451501 1.376118 4.609701 -7.438839 0.000000 0.000000 0.000000 0.000000 0.000000 0.000000 -0.457323 -0.995767 1.582812 -3.550601 3.429265 0.529082 18.225055 -24.535638 -16.802106 -20.194224 -4.727324 19.047790 0.000000 0.000000 0.000000 0.000000 0.000000 0.000000 3.348003 0.583676 -32.421843 -0.457704 6.007402 -0.363064 -70.989384 8.200172 146.169332 0.000000 0.000000 0.000000 4.655639 -1.808814 -47.156141 -1.714579 -10.602849 7.021856 -2.255420 13.167280 5.965598 0.000000 0.000000 0.000000
73.079262 39.217630 283.451188 -1.448007 -2.441821 34.927212 1.650499 1.408119 -35.011866 0.901200 0.343075 0.045700 2.041111 3.017720 1.661891 0.000000 0.000000 0.000000 1.812927 -0.138744 -0.577062 -0.416396 -0.034716 0.258164 -12.617620 2.392224 4.596029 3.790824 3.251880 -6.641177 0.000000 0.000000 0.000000 0.000000 0.000000 0.000000 -0.794577 1.996740 2.519375 -1.303782 1.421269 0.004509 12.021949 -23.975775 -14.505000 -17.097485 -3.447973 15.941276 0.000000 0.000000 0.000000 0.000000 0.000000 0.000000 3.240964 1.112146 -28.542639 -0.346180 4.947622 -1.350062 -71.526224 7.938060 147.904832 0.000000 0.000000 0.000000 4.747549 -1.311094 -43.916245 -1.450529 -9.084849 8.211456 1.233887 5.172674 -5.994991 0.000000 0.000000 0.000000
73.259772 39.187790 283.435505 -0.960094 -2.340335 35.147291 1.261731 1.490855 -35.213019 0.786703 0.395588 0.039751 1.762281 3.370241 1.508153 0.000000 0.000000 0.000000 1.530202 0.007725 -0.522246 -0.609141 -0.296539 0.301598 -11.474702 1.974686 4.150076 3.301462 3.249595 -6.353934 0.000000 0.000000 0.000000 0.000000 0.000000 0.000000 -1.305130 5.972962 3.750934 2.295626 -2.865510 -1.382607 6.166654 -23.290209 -12.680838 -17.094732 2.948707 19.107486 0.000000 0.000000 0.000000 0.000000 0.000000 0.000000 2.814159 1.306909 -28.486403 -0.239039 4.591415 -1.675499 -71.439622 9.352353 146.987227 0.000000 0.000000 0.000000 4.026303 -1.023784 -43.221475 -1.761431 -6.369835 7.496365 2.310022 -4.522687 -16.517176 0.000000 0.000000 0.000000
73.167942 39.266870 283.400288 -1.175134 -2.264275 29.324154 1.170376 1.484491 -29.396672 0.881751 0.397559 0.044435 1.679206 2.210403 1.346272 0.000000 0.000000 0.000000 1.136273 0.137731 -0.424228 -1.135226 -0.146113 0.421414 -9.001917 1.021365 3.173776 5.706772 2.709028 -4.066460 0.000000 0.000000 0.000000 0.000000 0.000000 0.000000 -1.444898 7.016282 4.055648 3.593514 -3.956833 -1.580764 3.480049 -20.370321 -10.904803 -17.732362 5.672477 21.973637 0.000000 0.000000 0.000000 0.000000 0.000000 0.000000 3.012676 1.397881 -20.819029 0.073948 4.222420 -2.908053 -71.682785 9.843878 146.857343 0.000000 0.000000 0.000000 4.586987 -1.208419 -38.780676 -1.929333 -3.475600 9.971221 2.562803 -23.124231 -39.912939 0.000000 0.000000 0.000000
73.047614 39.320841 283.319171 -1.479325 -2.058791 32.272422 1.325675 1.173326 -32.352365 0.984878 0.359747 0.049766 1.435407 0.111028 0.990981 0.000000 0.000000 0.000000 0.740212 0.287441 -0.330274 -0.738552 -0.291679 0.326537 -6.980555 0.990903 2.483088 7.675979 0.461950 -1.803394 0.000000 0.000000 0.000000 0.000000 0.000000 0.000000 -1.506815 8.525154 4.089033 5.454548 -6.765666 -2.188409 2.120516 -18.409931 -10.009254 -16.569832 1.332213 18.706097 0.000000 0.000000 0.000000 0.000000 0.000000 0.000000 3.306090 0.291989 -23.991515 0.009884 4.536337 -2.167514 -71.761792 10.017104 146.595556 0.000000 0.000000 0.000000 4.538215 -2.263694 -41.774675 -2.604813 -0.605080 10.324270 1.443982 -37.127209 -57.012532 0.000000 0.000000 0.000000
73.040713 39.378641 283.308559 -1.497826 -2.027833 31.659087 1.289123 1.146158 -31.739462 1.002021 0.376519 0.050510 0.995094 -1.458096 0.547288 0.000000 0.000000 0.000000 0.742949 0.380289 -0.356760 -1.924727 -1.223037 0.547911 -5.999453 1.644409 2.395824 9.725741 -1.061978 -1.132223 0.000000 0.000000 0.000000 0.000000 0.000000 0.000000 -1.145908 6.417419 3.254903 4.175020 -5.236777 -2.087317 5.471536 -17.920088 -11.058023 -16.508109 -20.170983 9.245594 0.000000 0.000000 0.000000 0.000000 0.000000 0.000000 3.478992 -0.043428 -22.330834 -0.007703 3.857955 -3.489768 -72.105953 9.943652 147.458009 0.000000 0.000000 0.000000 4.605031 -2.734144 -41.764677 -3.069847 1.527590 11.450411 -14.198117 -66.318138 -110.421593 0.000000 0.000000 0.000000
73.083283 39.436923 283.317620 -1.405167 -2.037600 31.411412 1.224783 1.166537 -31.488657 0.967728 0.404539 0.048637 0.522818 -2.441649 0.130712 0.000000 0.000000 0.000000 0.470832 0.626702 -0.330661 -2.265336 -1.816813 0.615538 -3.278961 1.083194 1.382996 10.540520 0.097011 0.928380 0.000000 0.000000 0.000000 0.000000 0.000000 0.000000 -0.736700 3.720868 2.228835 2.585242 -2.522602 -1.333678 6.256070 -17.684462 -10.685519 -13.089313 -17.383994 3.776615 0.000000 0.000000 0.000000 0.000000 0.000000 0.000000 3.563379 -0.113945 -20.931820 0.083734 4.230048 -3.889122 -72.264246 10.729912 146.994601 0.000000 0.000000 0.000000 4.587600 -2.984295 -41.982027 -3.465071 1.573114 11.729265 -4.369628 -75.545141 -110.208273 0.000000 0.000000 0.000000
73.147877 39.494256 283.345816 -1.263239 -2.085304 30.499090 1.137720 1.227968 -30.571632 0.906006 0.450583 0.045334 0.273255 -2.603512 -0.057769 0.000000 0.000000 0.000000 0.505462 0.697205 -0.361820 -3.231343 -2.010112 0.821228 -3.165895 1.454432 1.518930 13.558689 0.302317 1.728739 0.000000 0.000000 0.000000 0.000000 0.000000 0.000000 -0.585488 2.620492 1.821241 1.766818 -1.069094 -0.743627 5.552314 -16.004127 -9.498089 -9.552577 -12.322350 0.688121 0.000000 0.000000 0.000000 0.000000 0.000000 0.000000 3.542659 0.345182 -18.778795 0.270572 4.685995 -4.400627 -72.180848 11.379440 146.154887 0.000000 0.000000 0.000000 4.629270 -2.819199 -41.397819 -3.476514 -0.906943 11.272487 47.065363 -62.463588 -52.497593 0.000000 0.000000 0.000000
73.234063 39.547597 283.406441 -1.057868 -2.198849 29.455484 1.027108 1.333970 -29.521426 0.819308 0.532885 0.040691 0.272600 -2.516173 -0.050135 0.000000 0.000000 0.000000 0.762450 0.705686 -0.452933 -4.176822 -2.028949 1.047065 -4.696442 2.325755 2.337265 15.924427 0.662664 1.248323 0.000000 0.000000 0.000000 0.000000 0.000000 0.000000 -0.531765 2.093025 1.677646 1.846358 -0.492145 -0.593011 4.807759 -18.848794 -9.907757 -8.268370 -2.679502 2.983724 0.000000 0.000000 0.000000 0.000000 0.000000 0.000000 3.505978 0.477585 -17.214891 0.078233 4.506807 -5.400099 -72.300937 11.219842 146.756065 0.000000 0.000000 0.000000 4.640623 -2.261116 -40.398330 -3.844518 -3.690394 9.887045 21.634193 0.697658 -8.205405 0.000000 0.000000 0.000000
73.309819 39.580020 283.478515 -0.880570 -2.331660 30.013597 0.982081 1.395100 -30.073405 0.727791 0.632930 0.035871 0.574889 -2.148437 0.193734 0.000000 0.000000 0.000000 0.855704 0.684868 -0.479448 -4.313803 -1.901866 1.092782 -4.668861 2.463768 2.370183 15.672626 1.114468 1.169848 0.000000 0.000000 0.000000 0.000000 0.000000 0.000000 -0.588339 2.231745 1.850186 1.647138 -0.096107 -0.383531 6.309629 -22.235024 -11.916386 -9.420400 10.686097 8.249397 0.000000 0.000000 0.000000 0.000000 0.000000 0.000000 3.413500 0.346513 -18.492571 -0.392614 4.020409 -6.065032 -72.386291 10.311594 148.131097 0.000000 0.000000 0.000000 4.535521 -1.689174 -40.607356 -3.736173 -4.652783 9.140452 9.793026 8.230759 2.219750 0.000000 0.000000 0.000000
